#!OML:ASF H:\LiuWeirdWalks\Patient Classification 1\Patient 1\Session 1\male.ASF
:FULLY-SPECIFIED
:DEGREES
560
root 0.807762 19.6559 21.0227 -0.407 8.62092 -10.3461
lowerback 15.9281 -1.81937 -0.904934
upperback 0.489078 -2.13964 5.00755
thorax -8.19991 -0.891375 6.42624
lowerneck -23.3037 1.33254 7.14608
upperneck 19.6103 1.03549 -6.80507
head 10.1708 0.185473 -3.45508
rclavicle -2.34317e-014 2.00773e-014
rhumerus -56.4944 12.8744 -78.1286
rradius 58.4881
rwrist -6.04773
rhand -17.5495 0.567442
rfingers 7.12502
rthumb 8.70509 -29.2331
lclavicle -2.34317e-014 2.00773e-014
lhumerus -26.3285 -10.3829 71.8339
lradius 61.1066
lwrist 3.44744
lhand -20.773 -17.3286
lfingers 7.12502
lthumb 5.59348 12.5776
rfemur -23.0607 -4.06168 22.9635
rtibia 60.2839
rfoot 34.1258 -6.30951
rtoes 15.2791
lfemur -16.7403 4.25363 -12.6376
ltibia 56.8802
lfoot -5.36535 19.6564
ltoes -7.03617
561
root 0.817377 19.6282 21.2708 -0.387234 8.985 -10.6894
lowerback 15.9583 -1.69685 -0.389428
upperback 0.423894 -1.87581 5.02607
thorax -8.3345 -0.77812 6.09579
lowerneck -23.0476 1.1186 7.02603
upperneck 19.4112 0.748266 -6.63344
head 10.0287 0.0672379 -3.40828
rclavicle 5.71009e-014 -1.63003e-014
rhumerus -56.1849 11.7011 -78.4123
rradius 56.6901
rwrist -5.93698
rhand -17.7219 0.571433
rfingers 7.12502
rthumb 8.53876 -29.2359
lclavicle 5.71009e-014 -1.63003e-014
lhumerus -27.1739 -9.83555 71.8543
lradius 60.1817
lwrist 3.37473
lhand -20.7698 -17.4125
lfingers 7.12502
lthumb 5.59666 12.4935
rfemur -21.3046 -4.20725 23.8086
rtibia 60.2931
rfoot 34.2545 -6.66689
rtoes 15.1645
lfemur -18.7066 4.29759 -12.4316
ltibia 55.7301
lfoot -9.21648 19.5389
ltoes -17.2594
562
root 0.826427 19.5963 21.5236 -0.303387 9.36505 -10.89
lowerback 15.9161 -1.59603 -0.0659063
upperback 0.354814 -1.68053 5.01473
thorax -8.41663 -0.693491 5.85408
lowerneck -22.7978 0.952887 6.95627
upperneck 19.2152 0.516288 -6.48434
head 9.89485 -0.0250757 -3.36954
rclavicle -2.18663e-015 -4.77083e-014
rhumerus -55.809 10.5878 -78.6917
rradius 54.8599
rwrist -5.7841
rhand -17.8399 0.556856
rfingers 7.12502
rthumb 8.42487 -29.2551
lclavicle -2.18663e-015 -4.77083e-014
lhumerus -28.0262 -9.13874 71.7624
lradius 59.2674
lwrist 3.28525
lhand -20.784 -17.5382
lfingers 7.12502
lthumb 5.58294 12.3683
rfemur -19.5951 -4.42677 24.5161
rtibia 60.3072
rfoot 34.4134 -6.93788
rtoes 14.921
lfemur -20.4732 4.1135 -12.3962
ltibia 53.9366
lfoot -12.3023 19.2812
ltoes -24.2957
563
root 0.835884 19.5599 21.7812 -0.16634 9.74585 -10.9728
lowerback 15.8072 -1.51852 0.0793727
upperback 0.293135 -1.55279 4.99246
thorax -8.43996 -0.636606 5.71424
lowerneck -22.6011 0.84629 6.9355
upperneck 19.0562 0.355282 -6.36642
head 9.79034 -0.0855238 -3.34105
rclavicle 3.40667e-014 -5.12864e-014
rhumerus -55.3617 9.56815 -78.9578
rradius 53.0265
rwrist -5.6016
rhand -17.9004 0.528281
rfingers 7.12502
rthumb 8.3665 -29.286
lclavicle 3.40667e-014 -5.12864e-014
lhumerus -28.8911 -8.26887 71.5635
lradius 58.3816
lwrist 3.20599
lhand -20.8181 -17.676
lfingers 7.12502
lthumb 5.54997 12.2313
rfemur -17.925 -4.70609 25.1047
rtibia 60.3212
rfoot 34.5973 -7.12
rtoes 14.5356
lfemur -22.0185 3.72598 -12.4754
ltibia 51.5851
lfoot -14.5731 19.0439
ltoes -28.5547
564
root 0.846448 19.5151 22.0427 0.00805476 10.1088 -10.9746
lowerback 15.6424 -1.45729 0.0965785
upperback 0.250667 -1.47302 4.97094
thorax -8.40213 -0.599476 5.6561
lowerneck -22.5087 0.79459 6.94989
upperneck 18.9598 0.260769 -6.27738
head 9.73232 -0.117094 -3.32178
rclavicle 4.76089e-014 1.49089e-014
rhumerus -54.843 8.63746 -79.1987
rradius 51.2175
rwrist -5.40216
rhand -17.911 0.492194
rfingers 7.12502
rthumb 8.35626 -29.3225
lclavicle 4.76089e-014 1.49089e-014
lhumerus -29.7535 -7.24546 71.2704
lradius 57.5396
lwrist 3.17319
lhand -20.8685 -17.7988
lfingers 7.12502
lthumb 5.50136 12.1098
rfemur -16.3022 -5.02818 25.6059
rtibia 60.3577
rfoot 34.793 -7.22451
rtoes 14.0231
lfemur -23.3481 3.17498 -12.6048
ltibia 48.8045
lfoot -16.0533 18.9454
ltoes -30.6819
565
root 0.858681 19.4575 22.307 0.201854 10.4318 -10.9326
lowerback 15.4224 -1.39664 0.0534577
upperback 0.231221 -1.40743 4.95152
thorax -8.30501 -0.568337 5.63456
lowerneck -22.5082 0.773974 6.9717
upperneck 18.9246 0.205558 -6.20048
head 9.71557 -0.132055 -3.30498
rclavicle 4.08006e-014 -4.94974e-014
rhumerus -54.2806 7.75919 -79.4042
rradius 49.4605
rwrist -5.19595
rhand -17.8842 0.452303
rfingers 7.12502
rthumb 8.38206 -29.3614
lclavicle 4.08006e-014 -4.94974e-014
lhumerus -30.6026 -6.13165 70.9035
lradius 56.7559
lwrist 3.21428
lhand -20.9224 -17.8838
lfingers 7.12502
lthumb 5.44923 12.0261
rfemur -14.7376 -5.37125 26.0531
rtibia 60.4526
rfoot 34.9825 -7.27086
rtoes 13.4392
lfemur -24.4843 2.50919 -12.7277
ltibia 45.7528
lfoot -16.8283 19.0487
ltoes -31.2694
